<?xml version="1.0" standalone="no"?>
<!DOCTYPE svg PUBLIC "-//W3C//DTD SVG 20010904//EN"
 "http://www.w3.org/TR/2001/REC-SVG-20010904/DTD/svg10.dtd">
<svg version="1.0" xmlns="http://www.w3.org/2000/svg"
 width="64.000000pt" height="64.000000pt" viewBox="0 0 64.000000 64.000000"
 preserveAspectRatio="xMidYMid meet">

<g transform="translate(0.000000,64.000000) scale(0.100000,-0.100000)"
fill="#000000" stroke="none">
<path d="M16 624 c-14 -13 -16 -55 -16 -303 0 -266 1 -289 18 -304 16 -15 52
-17 304 -17 263 0 286 1 301 18 15 16 17 52 17 304 0 263 -1 286 -18 301 -16
15 -52 17 -305 17 -246 0 -288 -2 -301 -16z m444 -164 c0 -29 -1 -30 -50 -30
l-50 0 0 -140 0 -140 -40 0 -40 0 0 140 0 140 -50 0 c-49 0 -50 1 -50 30 l0
30 140 0 140 0 0 -30z"/>
</g>
</svg>
